PathFileType	4	(X/Y/Z)	C:/Users/opensim2020/Desktop/walking_exp_matlab/subject01_walking15_straight_04.trc	
DataRate	CameraRate	NumFrames	NumMarkers	Units	OrigDataRate	OrigDataStartFrame	OrigNumFrames	
100.00	100.00	5	43	mm	100.00	2146	105	
Frame#	Time	LFHD			RFHD			LBHD			RBHD			C7			T10			CLAV			STRN			RBAK			LSHO			LUPA			LELB			LFRM			LWRA			LWRB			LFIN			RSHO			RUPA			RELB			RFRM			RWRA			RWRB			RFIN			LASI			RASI			LPSI			RPSI			LTHI			LKNE			LTIB			LANK			LHEE			LTOE			RTHI			RKNE			RTIB			RANK			RHEE			RTOE			*39			*40			*41			*42			
		X1	Y1	Z1	X2	Y2	Z2	X3	Y3	Z3	X4	Y4	Z4	X5	Y5	Z5	X6	Y6	Z6	X7	Y7	Z7	X8	Y8	Z8	X9	Y9	Z9	X10	Y10	Z10	X11	Y11	Z11	X12	Y12	Z12	X13	Y13	Z13	X14	Y14	Z14	X15	Y15	Z15	X16	Y16	Z16	X17	Y17	Z17	X18	Y18	Z18	X19	Y19	Z19	X20	Y20	Z20	X21	Y21	Z21	X22	Y22	Z22	X23	Y23	Z23	X24	Y24	Z24	X25	Y25	Z25	X26	Y26	Z26	X27	Y27	Z27	X28	Y28	Z28	X29	Y29	Z29	X30	Y30	Z30	X31	Y31	Z31	X32	Y32	Z32	X33	Y33	Z33	X34	Y34	Z34	X35	Y35	Z35	X36	Y36	Z36	X37	Y37	Z37	X38	Y38	Z38	X39	Y39	Z39	X40	Y40	Z40	X41	Y41	Z41	X42	Y42	Z42	X43	Y43	Z43	

66	0.650	-962.09796	-52.81178	1643.62354	-1064.36926	-103.82227	1651.46118	-1012.02374	57.25604	1612.76941	-1120.86414	6.26998	1620.30359	-1047.42285	95.13300	1413.16187	-1062.29724	132.61653	1118.42322	-1047.10144	-50.55658	1347.62097	-1043.88684	-94.68874	1193.45703	-1124.46899	150.49138	1219.00696	-887.12244	15.43765	1379.06592	-796.80304	40.59724	1201.35107	-779.15552	37.39460	1048.56812	-768.57159	-69.12845	994.80341	-802.13696	-201.69044	980.57422	-777.13556	-174.17290	934.35889	-772.07037	-258.09286	930.59473	-1199.02112	14.73925	1379.11987	-1291.84277	118.12346	1194.41565	-1301.29163	137.64465	1075.79163	-1341.71460	162.26025	964.95880	-1337.97632	141.46992	822.71869	-1372.31995	181.82677	846.75403	-1384.35388	182.42938	760.89417	-947.96075	-33.05991	909.67303	-1160.34229	-58.77901	918.26294	-1025.82520	144.64767	924.43579	-1171.20911	124.25073	925.20099	-899.55096	69.02595	582.99384	-911.25439	114.84143	453.88821	-910.58215	265.39120	337.10675	-961.40125	418.70551	178.83176	-1016.81812	456.38501	199.65524	-983.41040	378.30377	36.31807	-1227.14514	-96.59029	599.18329	-1195.36707	-162.80008	458.59122	-1211.81006	-143.25101	282.62183	-1169.74976	-142.22194	74.68735	-1127.70313	-89.44039	35.43228	-1152.19836	-282.56442	36.85771	-1043.75012	-88.00432	1685.25488	-3102.02490	1973.08386	1023.35760	-3140.64233	2012.50220	1022.06354			 
67	0.660	-963.11780	-66.15495	1644.34668	-1065.08386	-117.76189	1652.14661	-1013.45697	43.72786	1613.09839	-1122.43225	-8.14314	1620.73450	-1048.65369	80.68191	1413.52844	-1062.83069	117.54718	1118.85938	-1047.93555	-65.09837	1348.40137	-1044.33032	-109.80054	1194.44604	-1125.74744	135.34286	1219.36353	-888.26703	1.56804	1379.92639	-798.16925	27.77827	1202.14087	-780.23004	24.87640	1049.49719	-768.96906	-80.94688	994.89551	-802.00867	-213.20117	978.05322	-776.44183	-184.95297	932.57019	-771.57367	-268.80734	927.61786	-1199.82324	-0.28043	1379.41602	-1293.10291	101.18412	1193.88013	-1302.26563	119.81246	1075.12732	-1342.47070	143.09302	964.16919	-1338.42285	121.19385	822.00366	-1373.22632	161.29454	845.77979	-1385.00354	161.48593	759.51715	-949.36694	-48.48925	909.69025	-1160.69019	-73.97478	919.68024	-1025.30640	129.82013	924.78186	-1170.81104	109.28524	926.83215	-899.15540	47.28440	580.98193	-909.76978	90.04188	451.45288	-908.35364	242.17017	338.49396	-957.72144	400.97723	184.90912	-1012.80341	436.71344	209.22719	-983.26117	372.05130	39.63638	-1226.97791	-112.79530	600.71344	-1195.41553	-175.04788	457.08118	-1211.90723	-150.59006	280.23801	-1169.18091	-143.80591	74.25341	-1127.67883	-89.93487	35.78448	-1150.63208	-283.84161	35.74297	-1044.41748	-102.54245	1685.76855	-3101.97192	1973.14185	1023.49359	-3140.64990	2012.47375	1021.87415			 
68	0.670	-964.09637	-79.38309	1645.17505	-1065.69385	-131.60431	1652.92920	-1015.21057	29.97968	1613.50720	-1123.60974	-22.58145	1620.97058	-1049.76489	66.60757	1413.75464	-1063.23706	102.85204	1119.19507	-1048.50452	-79.58427	1349.08057	-1044.52161	-124.49023	1195.28455	-1126.71277	120.17219	1219.67285	-889.14685	-12.38856	1380.75269	-799.13855	15.38333	1203.07349	-781.06232	13.15787	1050.83423	-769.26697	-92.20455	994.56262	-801.84406	-224.10951	974.90179	-776.05890	-195.09203	930.05658	-770.86108	-278.83664	923.53668	-1200.75183	-15.45360	1380.12634	-1294.32544	84.06060	1193.56030	-1303.26038	101.83508	1074.66675	-1343.56287	123.55135	963.46289	-1338.77161	100.22120	821.32147	-1374.24109	139.95633	844.78955	-1385.48792	139.33817	758.18018	-950.29010	-63.60017	909.90869	-1161.21912	-88.77720	921.19525	-1024.82788	114.51894	924.84552	-1170.14600	94.46548	928.58875	-899.04303	24.87306	578.78815	-908.57965	64.42587	448.66949	-906.36743	217.84543	339.08340	-955.50232	381.33600	191.43860	-1009.50940	416.81125	218.75589	-982.29938	361.24872	44.91864	-1227.37671	-128.62646	601.83051	-1195.24475	-186.34660	454.79901	-1212.73914	-156.79680	278.90213	-1168.69958	-144.63556	73.84204	-1127.43396	-90.17546	35.94827	-1150.83875	-284.38675	35.02713	-1045.35107	-116.62930	1686.58191	-3101.80005	1973.20508	1023.40881	-3140.73853	2012.47510	1022.15527			 
69	0.680	-965.04156	-92.84278	1646.03577	-1066.47681	-145.65038	1654.02637	-1016.64410	16.06043	1613.84290	-1124.87048	-36.88723	1621.39734	-1051.31445	52.80536	1414.20459	-1063.47656	88.50066	1119.97644	-1048.78113	-93.89012	1349.76465	-1044.56189	-138.73555	1195.97876	-1127.54297	105.12123	1220.19153	-890.01489	-25.75068	1381.89282	-799.96924	3.03898	1203.96082	-782.15552	1.44393	1051.93542	-769.67169	-102.83323	993.83789	-801.73505	-234.46725	971.07758	-775.66888	-204.35995	927.04681	-770.16638	-287.64587	918.83887	-1201.11108	-30.82307	1380.72180	-1295.65869	66.84754	1193.47852	-1304.30957	83.65062	1074.33618	-1344.47131	103.54260	962.65131	-1338.87585	78.19470	820.83160	-1374.90637	118.05276	843.67255	-1385.90125	116.01540	756.94366	-950.91949	-78.45756	910.52100	-1161.80518	-103.27687	922.73425	-1024.29822	99.96640	924.84711	-1169.51563	80.28024	930.41327	-899.27826	2.06519	576.55121	-907.75592	38.03318	445.76611	-904.45984	192.27466	339.06714	-954.53320	360.69910	199.04391	-1008.28925	395.57376	227.57739	-980.51117	345.48969	50.94885	-1227.82300	-143.03163	602.32843	-1195.48108	-196.23828	453.05984	-1212.74304	-161.86546	278.46494	-1168.48792	-145.10463	73.80746	-1127.25269	-90.30714	36.17974	-1150.27954	-284.72180	34.76970	-1046.51013	-130.02614	1687.47986	-3101.95142	1973.16101	1023.47375	-3140.73047	2012.53027	1021.99902			 
70	0.690	-965.90784	-106.37895	1647.65430	-1066.91199	-159.66064	1655.06787	-1017.81921	2.31958	1614.53784	-1125.65442	-51.32794	1621.86670	-1051.96826	38.61718	1415.09436	-1063.68030	74.38998	1121.09045	-1048.83655	-108.15212	1350.53931	-1044.30176	-152.75285	1196.72327	-1128.48425	90.35411	1221.11572	-890.36353	-39.52209	1382.80017	-800.64691	-9.21776	1204.95911	-783.28473	-9.78888	1052.86670	-770.11108	-112.82667	992.71820	-801.55212	-244.14751	966.65790	-775.39874	-212.82343	923.47076	-769.51141	-295.77448	913.14740	-1201.66638	-46.15053	1381.64844	-1296.89441	49.41437	1193.62952	-1305.43433	65.33741	1074.11731	-1345.34509	83.21637	961.74530	-1338.90137	55.62428	820.40717	-1375.43774	95.40408	842.44781	-1386.14270	91.65701	755.88629	-951.11688	-92.76759	911.26190	-1162.21399	-117.32833	924.35535	-1023.79657	85.67498	924.83801	-1168.97803	66.22114	931.98987	-899.47052	-20.86791	574.87665	-907.15771	10.95293	443.23309	-902.80573	166.36668	339.10617	-954.09717	340.14822	207.02309	-1008.69446	373.87268	234.47302	-978.67957	325.41864	56.75817	-1227.94019	-154.56416	602.53741	-1196.16479	-204.55983	452.08246	-1212.38062	-166.18318	278.30594	-1168.54578	-145.18102	74.13398	-1127.30664	-90.31330	36.54549	-1150.19312	-284.80222	34.60475	-1047.51416	-143.23749	1688.54456	-3102.04565	1973.15833	1023.57159	-3140.67432	2012.50037	1022.07916			 
